<?xml version="1.0" encoding="utf-8"?>
<!-- Generator: Adobe Illustrator 16.0.0, SVG Export Plug-In . SVG Version: 6.00 Build 0)  -->
<!DOCTYPE svg PUBLIC "-//W3C//DTD SVG 1.1//EN" "http://www.w3.org/Graphics/SVG/1.1/DTD/svg11.dtd">
<svg version="1.1" id="Capa_1" xmlns="http://www.w3.org/2000/svg" xmlns:xlink="http://www.w3.org/1999/xlink" x="0px" y="0px"
	 width="201px" height="96.02px" viewBox="0 0 201 96.02" enable-background="new 0 0 201 96.02" xml:space="preserve">
<g>
	<g>
		<g>
			<path fill="#B5BC0E" d="M26.985,62.152c0,1.589-0.294,2.988-0.881,4.193c-0.588,1.208-1.416,2.223-2.486,3.047
				c-1.07,0.823-2.339,1.441-3.807,1.854c-1.467,0.412-3.082,0.619-4.843,0.619H5.492v11.521H0.092v-30.9h15.21
				c1.662,0,3.211,0.207,4.648,0.617c1.435,0.413,2.674,1.023,3.712,1.833c1.037,0.81,1.853,1.817,2.439,3.022
				C26.69,59.166,26.985,60.563,26.985,62.152z M21.431,62.152c0-1.706-0.562-3.016-1.682-3.928
				c-1.122-0.913-2.631-1.369-4.529-1.369H5.492v10.638h9.728c2.07,0,3.624-0.47,4.658-1.411S21.431,63.83,21.431,62.152z"/>
			<path fill="#B5BC0E" d="M44.949,65.021c-0.589-0.266-1.196-0.471-1.817-0.618c-0.624-0.146-1.385-0.221-2.285-0.221
				c-1.696,0-3.012,0.502-3.946,1.502c-0.934,1.001-1.402,2.485-1.402,4.458v13.243H30.1V60.21h5.398v2.208
				c0.624-0.766,1.48-1.406,2.571-1.92c1.089-0.516,2.31-0.773,3.659-0.773c1.108,0,2.016,0.081,2.727,0.243
				c0.709,0.163,1.34,0.405,1.895,0.729L44.949,65.021z"/>
			<path fill="#B5BC0E" d="M70.387,71.688c0,1.914-0.312,3.627-0.935,5.144c-0.623,1.516-1.489,2.795-2.596,3.84
				c-1.109,1.045-2.406,1.84-3.894,2.383c-1.488,0.545-3.115,0.818-4.879,0.818c-1.732,0-3.323-0.288-4.777-0.861
				c-1.454-0.574-2.717-1.393-3.79-2.45c-1.074-1.06-1.913-2.324-2.518-3.796c-0.607-1.472-0.908-3.12-0.908-4.943
				c0-1.884,0.312-3.577,0.934-5.077c0.624-1.502,1.479-2.773,2.57-3.818c1.089-1.045,2.371-1.838,3.842-2.384
				c1.471-0.544,3.071-0.816,4.802-0.816c1.729,0,3.34,0.286,4.828,0.861c1.488,0.573,2.778,1.375,3.869,2.406
				c1.09,1.029,1.938,2.288,2.543,3.773C70.084,68.252,70.387,69.893,70.387,71.688z M64.988,71.821
				c0-2.386-0.614-4.276-1.843-5.674s-2.933-2.097-5.114-2.097c-2.042,0-3.644,0.699-4.802,2.097s-1.739,3.245-1.739,5.54
				c0,2.561,0.623,4.511,1.869,5.85c1.246,1.339,2.89,2.008,4.932,2.008c1.003,0,1.921-0.206,2.751-0.618
				c0.831-0.412,1.541-0.964,2.128-1.655c0.589-0.692,1.038-1.509,1.35-2.45C64.832,73.879,64.988,72.88,64.988,71.821z"/>
		</g>
		<g>
			<path fill="#55565B" d="M151.116-0.001c3.729,1.185,7.243,2.699,10.536,4.733l3.749-4.101l2.817,8.138
				c3.278,2.142,6.52,4.744,9.65,7.748l-8.38-0.553l0.767,13.065l-6.861-12.805l-11.143,1.043l6.566-7.937
				C156.726,5.796,154.166,2.681,151.116-0.001"/>
			<path fill="#55565B" d="M185.69,40.214l-5.221,1.212l-4.219-6.932c0.392,2.735,0.45,5.404,0.346,7.939l-5.951,2.089l5.813,3.242
				l-0.797,7.96l4.378-5.815l4.802,3.987l-2.615-7.776L185.69,40.214z"/>
			<polygon fill="#55565B" points="185.171,26.116 181.625,27.128 186.076,28.99 187.711,34.1 188.385,31.088 191.31,33.504 
				188.925,28.32 189.816,24.859 186.758,25.65 183.065,21.854 			"/>
			<path fill="#55565B" d="M197.411,57.756L201,52.879l-3.747-2.176c-0.241-4.642-0.962-8.597-2.179-11.747
				c0.179,3.505-1,10.442-1,10.442c-1.854-0.958-3.999-1.534-6.4-1.801c2.026,2.025,3.653,4.749,4.81,8.098
				c-1.067,3.964-2.43,7.147-4.127,9.497l6.084-4.289c0,0,1.528,5.002,1.601,7.8C196.959,65.686,197.42,62.023,197.411,57.756"/>
			<path fill="#55565B" d="M189.876,76.041c-0.678,1.064-1.964,2.087-3.727,3.174c1.409-0.273,2.385-0.3,3.025-0.147
				c-0.28,1.703-0.716,3.284-1.263,4.712l2.884-4.853l2.441-0.427l-0.845-3.136l2.284-5.058c-0.85,1.313-1.765,2.477-2.882,3.578
				l-1.521-2.602L189.876,76.041z"/>
			<path fill="#55565B" d="M162.292,33.343l1.998,5.111l1.056-3.167c1.781,0.981,3.344,2.049,4.718,3.191l-4.192-4.902l0.504-2.679
				h-3.028l-4.815-4.133l2.627,4.124l-3.97,0.136L162.292,33.343z"/>
			<path fill="#55565B" d="M90.771,83.901c-9.569,0-15.654-6.594-15.654-15.974c0-9.382,6.084-15.979,15.654-15.979
				c6.029,0,10.054,2.046,12.593,5.803l-4.925,2.578c-1.892-2.522-3.857-3.733-7.667-3.733c-6.456,0-9.942,4.387-9.942,11.331
				s3.487,11.333,9.942,11.333c3.863,0,6.241-1.336,8.144-3.859l4.604,2.567C100.876,81.774,96.385,83.901,90.771,83.901"/>
			<path fill="#55565B" d="M123.963,83.419V70.282c0-4.694-2.118-6.386-5.707-6.386c-3.659,0-5.714,2.184-5.714,5.929v13.594h-5.449
				V53.551l5.449-2.388v11.233c1.374-1.683,4.121-2.704,6.973-2.704c6.458,0,9.894,3.553,9.894,10.4v13.326H123.963L123.963,83.419z
				"/>
			<polygon fill="#55565B" points="143.668,83.419 143.668,53.551 149.12,51.163 149.12,83.419 			"/>
			<polygon fill="#55565B" points="133.874,60.302 133.874,58.021 139.317,55.64 139.317,60.302 			"/>
			<path fill="#55565B" d="M176.172,73.419h-18.354c0.584,4.461,3.604,6.36,6.986,6.36c2.327,0,4.171-0.705,6.014-1.856l3.239,2.92
				c-2.441,1.946-5.339,3.062-9.575,3.062c-6.506,0-12.009-4.386-12.009-12.081c0-7.873,4.968-12.125,12.167-12.125
				c7.878,0,11.689,5.353,11.689,11.637C176.329,72.178,176.222,72.932,176.172,73.419 M164.277,63.818
				c-3.655,0-5.875,2.117-6.36,5.837h12.901C170.563,66.465,168.763,63.818,164.277,63.818"/>
			<rect x="133.884" y="61.963" fill="#55565B" width="5.446" height="21.46"/>
		</g>
	</g>
	<g>
		<path fill="#56575B" d="M4.526,95.946L4.42,91.639H4.389c-0.09,0.544-0.181,0.938-0.25,1.232l-0.725,3.074H1.957l-0.695-3.074
			c-0.067-0.295-0.158-0.688-0.256-1.232H0.974l-0.068,4.308H0l0.196-5.101h1.699c0,0,0.56,2.568,0.854,4.216h0.022
			c0.339-1.64,1.004-4.216,1.004-4.216h1.67l0.195,5.101H4.526z"/>
		<path fill="#56575B" d="M7.919,95.946v-5.101h0.99v5.101H7.919z"/>
		<path fill="#56575B" d="M13.723,95.946l-1.586-4.013h-0.029l0.067,4.013h-0.891v-5.101h1.519l1.609,4.096h0.029l-0.067-4.096
			h0.915v5.101H13.723z"/>
		<path fill="#56575B" d="M17.661,95.946v-5.101h0.989v5.101H17.661z"/>
		<path fill="#56575B" d="M22.482,96.021c-0.68,0-1.254-0.241-1.662-0.543l0.378-0.778c0.295,0.257,0.831,0.489,1.298,0.489
			c0.469,0,0.787-0.285,0.787-0.671c0-1.081-2.358-0.544-2.358-2.343c0-0.771,0.605-1.405,1.798-1.405
			c0.598,0,1.104,0.129,1.52,0.347l-0.333,0.795c-0.279-0.166-0.732-0.279-1.201-0.279c-0.461,0-0.763,0.149-0.763,0.527
			c0,0.915,2.372,0.561,2.372,2.298C24.318,95.266,23.646,96.021,22.482,96.021z"/>
		<path fill="#56575B" d="M28.104,91.684v4.263h-1.027v-4.263h-1.231v-0.838h3.529v0.838H28.104z"/>
		<path fill="#56575B" d="M31.241,95.946v-5.101h3.136v0.838h-2.146v1.256h1.64l-0.075,0.875h-1.565v1.308h2.146v0.824H31.241z"/>
		<path fill="#56575B" d="M37.423,95.946H36.44v-5.101h1.641c1.005,0,1.82,0.469,1.82,1.532c0,0.689-0.393,1.203-0.966,1.468
			c0.354,0.709,0.725,1.39,1.08,2.101h-1.163l-0.839-1.929c-0.227,0.009-0.378,0.009-0.59,0.009V95.946z M37.92,91.617h-0.498v1.63
			h0.498c0.65,0,0.922-0.293,0.922-0.875C38.843,91.805,38.519,91.617,37.92,91.617z"/>
		<path fill="#56575B" d="M42.07,95.946v-5.101h0.989v5.101H42.07z"/>
		<path fill="#56575B" d="M47.428,96.021c-1.685,0-2.169-1.277-2.169-2.667c0-1.337,0.469-2.584,2.169-2.584
			c1.73,0,2.183,1.231,2.183,2.584C49.612,94.722,49.113,96.021,47.428,96.021z M47.428,91.624c-0.892,0-1.126,0.809-1.126,1.723
			c0,1.013,0.226,1.842,1.126,1.842c0.876,0,1.133-0.814,1.133-1.842C48.561,92.417,48.32,91.624,47.428,91.624z"/>
		<path fill="#56575B" d="M56.421,96.021c-0.741,0-1.345-0.136-1.813-0.271v-4.904h1.699c1.482,0,2.418,0.604,2.418,2.501
			C58.726,95.002,58.007,96.021,56.421,96.021z M56.27,91.646h-0.672v3.438c0.173,0.053,0.514,0.104,0.875,0.104
			c0.666,0,1.201-0.384,1.201-1.851C57.675,92.108,57.29,91.646,56.27,91.646z"/>
		<path fill="#56575B" d="M60.873,95.946v-5.101h3.135v0.838h-2.145v1.256h1.64l-0.076,0.875h-1.563v1.308h2.145v0.824H60.873z"/>
		<path fill="#56575B" d="M69.971,95.946h-0.981v-5.101h1.64c1.005,0,1.82,0.469,1.82,1.532c0,0.689-0.394,1.203-0.967,1.468
			c0.356,0.709,0.725,1.39,1.081,2.101h-1.164l-0.838-1.929c-0.228,0.009-0.378,0.009-0.59,0.009V95.946L69.971,95.946z
			 M70.47,91.617h-0.5v1.63h0.5c0.649,0,0.921-0.293,0.921-0.875C71.392,91.805,71.066,91.617,70.47,91.617z"/>
		<path fill="#56575B" d="M74.505,95.946v-5.101h3.136v0.838h-2.146v1.256h1.638l-0.075,0.875h-1.564v1.308h2.146v0.824H74.505z"/>
		<path fill="#56575B" d="M79.735,95.946v-5.101h0.99v4.27h2.146v0.831H79.735z"/>
		<path fill="#56575B" d="M85.274,95.946h-0.967l1.382-5.101h1.646l1.338,5.101h-1.11l-0.265-1.149h-1.753L85.274,95.946z
			 M86.286,91.715l-0.558,2.281h1.389l-0.521-2.281H86.286z"/>
		<path fill="#56575B" d="M92.416,96.021c-1.437,0-2.207-0.951-2.207-2.652c0-1.587,0.763-2.599,2.207-2.599
			c0.694,0,1.322,0.151,1.738,0.431l-0.378,0.801c-0.265-0.203-0.725-0.355-1.255-0.355c-0.846,0-1.269,0.598-1.269,1.716
			c0,1.178,0.422,1.783,1.254,1.783c0.498,0,0.997-0.211,1.345-0.467l0.316,0.8C93.662,95.824,93.088,96.021,92.416,96.021z"/>
		<path fill="#56575B" d="M96.263,95.946v-5.101h0.99v5.101H96.263z"/>
		<path fill="#56575B" d="M101.62,96.021c-1.685,0-2.168-1.277-2.168-2.667c0-1.337,0.468-2.584,2.168-2.584
			c1.73,0,2.184,1.231,2.184,2.584C103.804,94.722,103.305,96.021,101.62,96.021z M101.62,91.624c-0.893,0-1.125,0.809-1.125,1.723
			c0,1.013,0.227,1.842,1.125,1.842c0.876,0,1.133-0.814,1.133-1.842C102.753,92.417,102.513,91.624,101.62,91.624z"/>
		<path fill="#56575B" d="M108.339,95.946l-1.588-4.013h-0.028l0.066,4.013h-0.892v-5.101h1.519l1.609,4.096h0.031l-0.068-4.096
			h0.914v5.101H108.339z"/>
		<path fill="#56575B" d="M112.162,95.946v-5.101h3.136v0.838h-2.146v1.256h1.64l-0.076,0.875h-1.563v1.308h2.146v0.824H112.162z"/>
		<path fill="#56575B" d="M118.616,96.021c-0.68,0-1.254-0.241-1.663-0.543l0.379-0.778c0.295,0.257,0.83,0.489,1.3,0.489
			c0.468,0,0.785-0.285,0.785-0.671c0-1.081-2.357-0.544-2.357-2.343c0-0.771,0.604-1.405,1.798-1.405
			c0.598,0,1.104,0.129,1.519,0.347l-0.332,0.795c-0.279-0.166-0.733-0.279-1.2-0.279c-0.462,0-0.764,0.149-0.764,0.527
			c0,0.915,2.371,0.561,2.371,2.298C120.451,95.266,119.778,96.021,118.616,96.021z"/>
		<path fill="#56575B" d="M125.434,95.946v-5.101h3.135v0.838h-2.146v1.256h1.641l-0.076,0.875h-1.564v1.308h2.146v0.824H125.434z"
			/>
		<path fill="#56575B" d="M131.585,90.846l0.891,1.646l0.898-1.646h1.202l-1.625,2.508l1.587,2.593h-1.216l-0.975-1.679
			l-0.938,1.679h-1.201l1.67-2.555l-1.513-2.546H131.585z"/>
		<path fill="#56575B" d="M138.28,91.684v4.263h-1.027v-4.263h-1.232v-0.838h3.529v0.838H138.28z"/>
		<path fill="#56575B" d="M141.417,95.946v-5.101h3.135v0.838h-2.146v1.256h1.639l-0.074,0.875h-1.564v1.308h2.146v0.824H141.417z"
			/>
		<path fill="#56575B" d="M147.598,95.946h-0.981v-5.101h1.639c1.005,0,1.82,0.469,1.82,1.532c0,0.689-0.392,1.203-0.966,1.468
			c0.354,0.709,0.725,1.39,1.079,2.101h-1.163l-0.839-1.929c-0.227,0.009-0.378,0.009-0.589,0.009V95.946L147.598,95.946z
			 M148.096,91.617h-0.498v1.63h0.498c0.651,0,0.923-0.293,0.923-0.875C149.019,91.805,148.693,91.617,148.096,91.617z"/>
		<path fill="#56575B" d="M152.246,95.946v-5.101h0.99v5.101H152.246z"/>
		<path fill="#56575B" d="M157.604,96.021c-1.685,0-2.17-1.277-2.17-2.667c0-1.337,0.47-2.584,2.17-2.584
			c1.73,0,2.183,1.231,2.183,2.584C159.787,94.722,159.288,96.021,157.604,96.021z M157.604,91.624
			c-0.894,0-1.126,0.809-1.126,1.723c0,1.013,0.226,1.842,1.126,1.842c0.876,0,1.133-0.814,1.133-1.842
			C158.736,92.417,158.495,91.624,157.604,91.624z"/>
		<path fill="#56575B" d="M162.855,95.946h-0.981v-5.101h1.639c1.005,0,1.82,0.469,1.82,1.532c0,0.689-0.392,1.203-0.966,1.468
			c0.354,0.709,0.725,1.39,1.08,2.101h-1.165l-0.838-1.929c-0.227,0.009-0.378,0.009-0.589,0.009V95.946L162.855,95.946z
			 M163.354,91.617h-0.498v1.63h0.498c0.649,0,0.923-0.293,0.923-0.875C164.276,91.805,163.951,91.617,163.354,91.617z"/>
		<path fill="#56575B" d="M167.391,95.946v-5.101h3.134v0.838h-2.144v1.256h1.639l-0.075,0.875h-1.563v1.308h2.144v0.824H167.391z"
			/>
		<path fill="#56575B" d="M173.844,96.021c-0.68,0-1.254-0.241-1.663-0.543l0.379-0.778c0.294,0.257,0.83,0.489,1.299,0.489
			s0.785-0.285,0.785-0.671c0-1.081-2.355-0.544-2.355-2.343c0-0.771,0.603-1.405,1.798-1.405c0.597,0,1.103,0.129,1.519,0.347
			l-0.332,0.795c-0.28-0.166-0.733-0.279-1.202-0.279c-0.462,0-0.764,0.149-0.764,0.527c0,0.915,2.372,0.561,2.372,2.298
			C175.68,95.266,175.006,96.021,173.844,96.021z"/>
	</g>
</g>
</svg>
